<?xml version="1.0" encoding="UTF-8"?>
<svg xmlns="http://www.w3.org/2000/svg" viewBox="0 0 191.14 191.14">
  <defs>
    <style>.cls-1{fill:#00adee;}</style>
  </defs>
  <title>Asset 2</title>
  <g id="Layer_2" data-name="Layer 2">
    <g id="Layer_1-2" data-name="Layer 1">
      <path class="cls-1" d="M95.57,191.14A95.6,95.6,0,0,0,188,119.78c-12.52-1.7-24.18-1.32-35.78-.83-22.43,1-40.83,7.36-46.78,8.72-12.62,3.47-36.25,11.65-36.25,11.65L90.4,106.49c18.67-31.16,33.5-32,39.39-24.82,5.53-8.54-.14-10.65-.14-10.65.49-3-3-15.07-24-7.77-25.91,8.18-43.78,14.86-61.31,18.4-16,2.27-29.11,2.95-43.44.94A95.47,95.47,0,0,0,95.57,191.14Z"></path>
      <path class="cls-1" d="M95.57,0A95.59,95.59,0,0,0,4.87,65.46a155.94,155.94,0,0,0,34.22-.6,208.69,208.69,0,0,0,31.23-6.74c10.21-2.9,20.23-6.17,30.29-9,18.93-4.94,36.79.84,38,13.88,8.64,5.94,6.93,20.19-2.08,31.65l-1,1.26-1.33-.88c-12.14-9.9-20.58,1.24-31.07,18.47,32-13.2,66-13.5,87.65-10.42.19-2.49.32-5,.32-7.55A95.57,95.57,0,0,0,95.57,0Z"></path>
    </g>
  </g>
</svg>
